<mxfile host="app.diagrams.net" agent="Mozilla/5.0 (Windows NT 10.0; Win64; x64) AppleWebKit/537.36 (KHTML, like Gecko) Chrome/140.0.0.0 Safari/537.36" version="28.2.3">
  <diagram name="Halaman-1" id="wsobQ9VC4xNBOup6YMUd">
    <mxGraphModel dx="1426" dy="761" grid="1" gridSize="5" guides="1" tooltips="1" connect="1" arrows="1" fold="1" page="1" pageScale="1" pageWidth="827" pageHeight="1169" math="0" shadow="0">
      <root>
        <mxCell id="0" />
        <mxCell id="1" parent="0" />
        <mxCell id="tu17X0yA7kKeBMeFJn4z-9" value="" style="rounded=0;whiteSpace=wrap;html=1;" vertex="1" parent="1">
          <mxGeometry x="40" y="620" width="760" height="545" as="geometry" />
        </mxCell>
        <mxCell id="tu17X0yA7kKeBMeFJn4z-5" value="Mapping" style="rounded=0;whiteSpace=wrap;html=1;fillColor=default;dashed=1;dashPattern=1 4;verticalAlign=top;" vertex="1" parent="1">
          <mxGeometry x="40" y="140" width="750" height="450" as="geometry" />
        </mxCell>
        <mxCell id="tu17X0yA7kKeBMeFJn4z-1" value="Survey LAN &amp;amp; WiFi Nexa" style="text;html=1;align=center;verticalAlign=middle;whiteSpace=wrap;rounded=0;fillColor=default;" vertex="1" parent="1">
          <mxGeometry y="20" width="825" height="30" as="geometry" />
        </mxCell>
        <mxCell id="tu17X0yA7kKeBMeFJn4z-2" value="Site:" style="text;html=1;align=center;verticalAlign=middle;whiteSpace=wrap;rounded=0;" vertex="1" parent="1">
          <mxGeometry x="40" y="80" width="25" height="30" as="geometry" />
        </mxCell>
        <mxCell id="tu17X0yA7kKeBMeFJn4z-3" value="Text" style="text;html=1;align=left;verticalAlign=middle;whiteSpace=wrap;rounded=0;fillColor=#f5f5f5;fontColor=#333333;strokeColor=#666666;" vertex="1" parent="1">
          <mxGeometry x="80" y="80" width="240" height="30" as="geometry" />
        </mxCell>
        <mxCell id="tu17X0yA7kKeBMeFJn4z-6" value="Keutuhan:" style="text;html=1;align=center;verticalAlign=middle;whiteSpace=wrap;rounded=0;" vertex="1" parent="1">
          <mxGeometry x="40" y="620" width="60" height="30" as="geometry" />
        </mxCell>
        <mxCell id="tu17X0yA7kKeBMeFJn4z-7" value="LAN:" style="text;html=1;align=center;verticalAlign=middle;whiteSpace=wrap;rounded=0;" vertex="1" parent="1">
          <mxGeometry x="100" y="660" width="30" height="30" as="geometry" />
        </mxCell>
        <mxCell id="tu17X0yA7kKeBMeFJn4z-8" value="Text" style="text;html=1;align=center;verticalAlign=middle;whiteSpace=wrap;rounded=0;fillColor=#f5f5f5;fontColor=#333333;strokeColor=#666666;dashed=1;dashPattern=1 4;" vertex="1" parent="1">
          <mxGeometry x="125" y="680" width="325" height="230" as="geometry" />
        </mxCell>
        <mxCell id="tu17X0yA7kKeBMeFJn4z-10" value="Text" style="text;html=1;align=center;verticalAlign=middle;whiteSpace=wrap;rounded=0;fillColor=#f5f5f5;fontColor=#333333;strokeColor=#666666;dashed=1;dashPattern=1 4;" vertex="1" parent="1">
          <mxGeometry x="460" y="680" width="325" height="230" as="geometry" />
        </mxCell>
        <mxCell id="tu17X0yA7kKeBMeFJn4z-11" value="WiFi:" style="text;html=1;align=center;verticalAlign=middle;whiteSpace=wrap;rounded=0;" vertex="1" parent="1">
          <mxGeometry x="100" y="910" width="30" height="30" as="geometry" />
        </mxCell>
        <mxCell id="tu17X0yA7kKeBMeFJn4z-12" value="Text" style="text;html=1;align=center;verticalAlign=middle;whiteSpace=wrap;rounded=0;fillColor=#f5f5f5;fontColor=#333333;strokeColor=#666666;dashed=1;dashPattern=1 4;" vertex="1" parent="1">
          <mxGeometry x="125" y="930" width="325" height="230" as="geometry" />
        </mxCell>
        <mxCell id="tu17X0yA7kKeBMeFJn4z-13" value="Text" style="text;html=1;align=center;verticalAlign=middle;whiteSpace=wrap;rounded=0;fillColor=#f5f5f5;fontColor=#333333;strokeColor=#666666;dashed=1;dashPattern=1 4;" vertex="1" parent="1">
          <mxGeometry x="460" y="930" width="325" height="230" as="geometry" />
        </mxCell>
      </root>
    </mxGraphModel>
  </diagram>
</mxfile>
